<?xml version="1.0" encoding="UTF-8"?>
<!-- Created with Inkscape (http://www.inkscape.org/) -->
<svg width="96.37" height="50.593" version="1.0" xmlns="http://www.w3.org/2000/svg" xmlns:cc="http://creativecommons.org/ns#" xmlns:dc="http://purl.org/dc/elements/1.1/" xmlns:rdf="http://www.w3.org/1999/02/22-rdf-syntax-ns#" xmlns:xlink="http://www.w3.org/1999/xlink">
 <metadata>
  <rdf:RDF>
   <cc:Work rdf:about="">
    <dc:format>image/svg+xml</dc:format>
    <dc:type rdf:resource="http://purl.org/dc/dcmitype/StillImage"/>
   </cc:Work>
  </rdf:RDF>
 </metadata>
 <defs>
  <g>
   <symbol id="teteovale" overflow="visible" style="overflow:visible">
    <path d="m4.375-2.75c-.8125 0-1.6094.29688-2.3281.71875-.9375.5625-2.0469 1.5312-2.0469 2.9688 0 1.2344 1.0625 1.8125 2.1719 1.8125.8125 0 1.6094-.29688 2.3281-.71875.9375-.5625 2.0469-1.5312 2.0469-2.9688 0-1.2344-1.0469-1.8125-2.1719-1.8125z"/>
   </symbol>
   <symbol id="crochet" overflow="visible" style="overflow:visible">
    <path d="m0 0h-.3125v4.9844h.3125c1.4375 1.4844 3.3281 3.5625 3.3281 5.6406 0 1.3125-.3125 2.6094-.84375 3.8125-.046875.32812.20312.54688.46875.54688.14062 0 .28125-.07813.375-.25.51562-1.3125.82812-2.7031.82812-4.1094 0-3.9531-4.1562-6.6875-4.1562-10.625z"/>
   </symbol>
  </g>
 </defs>
 <g transform="translate(2.0388 -62.207)" style="fill:#000000">

  <g transform="matrix(2.1206 0 0 2.1206 -903.6 18.287)" style="fill:#000000">
   <use x="433.85986" y="40.423397" width="100%" height="100%" style="fill:#007700" xlink:href="#teteovale"/>
  </g>

  <path d="m29.409 101.6h.52188v-34.145h-.52188zm0 0" style="fill:#884433;stroke-linecap:round;stroke-linejoin:round;stroke-miterlimit:10;stroke-width:.84508;stroke:#000088"/>

  <path d="m29.409 101.6h.52186v-34.145h-.52186z" style="fill:#ff5566"/>

  <g transform="matrix(2.1206 0 0 2.1206 -903.6 18.287)" style="fill:#000000">
   <use x="440.41589" y="23.187363" width="100%" height="100%" style="fill:#770000" xlink:href="#crochet"/>
  </g>

 </g>
</svg>
